<?xml version="1.0" encoding="UTF-8"?>
<svg version="1.1" xmlns="http://www.w3.org/2000/svg" width="512" height="512">
<path d="M0 0 C1.02829926 -0.00832352 2.05659851 -0.01664703 3.11605835 -0.02522278 C6.51466668 -0.04931168 9.91308293 -0.05809455 13.31176758 -0.06469727 C15.67963213 -0.07366588 18.0474961 -0.08278777 20.4153595 -0.09205627 C25.38092424 -0.10854684 30.34642155 -0.11624627 35.31201172 -0.11914062 C41.65939491 -0.12451804 48.0061398 -0.1621723 54.35334301 -0.20788479 C59.24599999 -0.23770432 64.13850435 -0.24486529 69.03124428 -0.24586678 C71.3703128 -0.2500609 73.70938211 -0.26246251 76.04836082 -0.28338432 C79.32958518 -0.31039296 82.60934436 -0.30544359 85.890625 -0.29296875 C86.84734604 -0.30780304 87.80406708 -0.32263733 88.78977966 -0.33792114 C96.55550732 -0.25430973 103.01784864 1.97519696 108.88648891 7.18710613 C116.13514868 14.63986585 118.37507443 24.82143092 120.78442383 34.64233398 C121.04511658 35.68410797 121.30580933 36.72588196 121.57440186 37.79922485 C122.11883335 39.98159795 122.65982875 42.16483091 123.19750977 44.34887695 C124.0221748 47.69509505 124.85951799 51.03795786 125.69848633 54.38061523 C126.22788058 56.5093355 126.7565523 58.63823561 127.28442383 60.76733398 C127.53436096 61.7652597 127.7842981 62.76318542 128.04180908 63.79135132 C128.38281647 65.1839769 128.38281647 65.1839769 128.73071289 66.60473633 C128.93182678 67.41840668 129.13294067 68.23207703 129.34014893 69.07040405 C129.76879883 71.30639648 129.76879883 71.30639648 129.76879883 75.30639648 C135.04879883 75.63639648 140.32879883 75.96639648 145.76879883 76.30639648 C147.25379883 73.83139648 147.25379883 73.83139648 148.76879883 71.30639648 C156.52494125 67.42832527 168.74532591 70.90145768 176.83129883 72.55639648 C177.91217773 72.76135742 178.99305664 72.96631836 180.10668945 73.17749023 C203.26955186 77.75732522 203.26955186 77.75732522 209.64379883 85.61889648 C211.11997126 89.14530841 211.23498777 91.51028649 210.76879883 95.30639648 C207.94419601 101.72594833 202.96660628 103.81884111 196.76879883 106.30639648 C181.28522411 112.07812791 164.68367126 114.29547336 148.39379883 116.49389648 C147.15895752 116.66083008 145.92411621 116.82776367 144.65185547 116.99975586 C136.36484676 118.07540151 128.10898506 118.79901784 119.76879883 119.30639648 C117.59640506 138.99231527 126.60808569 153.62365576 135.99707031 170.15625 C136.58174072 171.19579834 137.16641113 172.23534668 137.76879883 173.30639648 C138.18009033 174.03592529 138.59138184 174.7654541 139.01513672 175.51708984 C140.34446914 178.67312397 139.63190142 181.08414682 138.76879883 184.30639648 C134.92371381 188.6476215 129.1734239 190.50804336 123.76879883 192.30639648 C123.10879883 192.30639648 122.44879883 192.30639648 121.76879883 192.30639648 C121.78974609 192.96124023 121.81069336 193.61608398 121.83227539 194.29077148 C121.91610266 197.29581977 121.96766778 200.30062112 122.01879883 203.30639648 C122.05231445 204.33635742 122.08583008 205.36631836 122.12036133 206.42749023 C122.203287 212.93715557 121.61265219 217.91424269 117.76879883 223.30639648 C112.52371059 228.29562676 108.2754849 228.52145164 101.32348633 228.47045898 C85.65015476 227.74707445 85.65015476 227.74707445 80.76879883 225.30639648 C80.76879883 225.96639648 80.76879883 226.62639648 80.76879883 227.30639648 C81.64773804 227.52900146 81.64773804 227.52900146 82.54443359 227.75610352 C90.91990314 229.95384935 99.1118461 232.64125621 107.3203125 235.38500977 C109.69652768 236.1781351 112.0753012 236.96321118 114.4543457 237.74780273 C140.47447215 246.38231455 161.41354598 258.0290506 174.58129883 283.24389648 C180.48623061 295.75087005 182.60587415 307.67263483 183.76879883 321.30639648 C184.20579102 320.5434729 184.20579102 320.5434729 184.65161133 319.76513672 C197.6047134 297.34415206 197.6047134 297.34415206 208.76879883 294.30639648 C211.93560257 294.01752502 215.08320156 294.0584393 218.26098633 294.09936523 C219.27409882 294.10622849 220.2872113 294.11309174 221.33102417 294.12016296 C238.45860433 294.29756555 255.58317701 294.87227126 272.7019043 295.42333984 C277.90624195 295.59010594 283.11093272 295.7400287 288.3158741 295.88654804 C292.35679447 296.00336715 296.39724977 296.13259051 300.43767929 296.26521873 C302.35842562 296.32609554 304.27932634 296.38229649 306.20035172 296.43361855 C308.86977557 296.50604571 311.53806009 296.59609142 314.20678711 296.69042969 C315.38022171 296.71632927 315.38022171 296.71632927 316.57736206 296.74275208 C321.31877318 296.93327095 324.64239228 297.74197271 328.76879883 300.30639648 C333.3291172 305.35972225 334.21830502 308.57914558 334.13989258 315.27905273 C333.4997406 320.50134516 331.00337849 324.3951604 328.26879883 328.80639648 C327.68855957 329.78632568 327.10832031 330.76625488 326.51049805 331.77587891 C325.26286758 333.87735131 324.0045559 335.9725128 322.73657227 338.06176758 C320.75805228 341.32411629 318.81001557 344.60284149 316.87036133 347.88842773 C314.19412163 352.42098237 311.50832728 356.94763761 308.81567383 361.47045898 C304.23292624 369.18819258 299.75013993 376.96200298 295.27539062 384.74267578 C289.39378441 394.96869422 283.45100187 405.15827512 277.49829102 415.34301758 C275.76422919 418.31422629 274.03531316 421.2883718 272.30786133 424.26342773 C269.41519643 429.24440404 266.50694087 434.2160481 263.5925293 439.18432617 C262.33014048 441.34542767 261.0743878 443.5104142 259.82397461 445.6784668 C257.86036455 449.08308605 255.87853208 452.47655805 253.89379883 455.86889648 C253.29962158 456.90973389 252.70544434 457.95057129 252.09326172 459.02294922 C247.87292972 466.18018588 243.48968361 471.95569457 235.92895508 475.72045898 C231.34161613 476.57101627 226.863499 476.67493264 222.20629883 476.68139648 C221.27366211 476.70588867 220.34102539 476.73038086 219.38012695 476.75561523 C215.10173352 476.773912 212.48933798 476.72849297 208.74145508 474.53295898 C206.92680058 472.48473509 205.92151934 470.75307868 204.76879883 468.30639648 C194.43679445 467.27526038 188.68318728 469.17899851 180.39379883 475.24389648 C178.38592484 476.63111052 176.37681038 478.01653081 174.36645508 479.40014648 C172.92616943 480.41141602 172.92616943 480.41141602 171.45678711 481.44311523 C165.75857953 485.39304441 159.8119174 488.91399831 153.76879883 492.30639648 C153.11862793 492.6737793 152.46845703 493.04116211 151.79858398 493.41967773 C149.76029951 494.55460389 147.70655963 495.65417813 145.64379883 496.74389648 C144.74866577 497.23974243 144.74866577 497.23974243 143.83544922 497.74560547 C133.05184791 503.25356829 119.70518808 502.77731598 107.83520508 503.41967773 C106.15982978 503.51487705 104.48448158 503.61055424 102.80915833 503.70666504 C98.26691503 503.96527879 93.7242384 504.21530594 89.18138885 504.46301651 C86.31543505 504.61976412 83.44960402 504.77859585 80.58380127 504.93807983 C65.97999599 505.75016969 51.37480178 506.53490941 36.76879883 507.30639648 C35.65561531 507.3652301 34.54243179 507.42406372 33.39551544 507.48468018 C17.42010677 508.3279323 1.44362212 509.14812028 -14.53386307 509.95101547 C-17.81994955 510.11706465 -21.10589577 510.2856663 -24.39181519 510.45498657 C-63.86694351 512.48229807 -63.86694351 512.48229807 -82.56713867 512.69311523 C-83.73298492 512.71839798 -84.89883118 512.74368073 -86.1000061 512.76972961 C-96.69523313 512.78337725 -104.54700784 509.82372999 -112.25073242 502.52905273 C-118.39749937 495.63061014 -120.34882392 489.12585433 -120.37837219 480.04812622 C-120.38204888 479.31546347 -120.38572557 478.58280071 -120.38951367 477.82793605 C-120.40053057 475.37169309 -120.40439105 472.91549247 -120.40820312 470.45922852 C-120.41446957 468.69812384 -120.42111653 466.93702049 -120.42811584 465.17591858 C-120.44914721 459.38869139 -120.4595213 453.60146399 -120.46948242 447.81420898 C-120.47353113 445.81850038 -120.47764808 443.82279191 -120.4818325 441.82708359 C-120.50088666 432.44474801 -120.515114 423.06242029 -120.52344447 413.68006909 C-120.5332008 402.87151966 -120.55947739 392.0631759 -120.59994537 381.25469887 C-120.63018711 372.8884372 -120.6449212 364.52223419 -120.64822549 356.15591896 C-120.6505679 351.1654592 -120.65942175 346.17521908 -120.68468666 341.18481827 C-120.70811197 336.48156992 -120.71214299 331.77868353 -120.70192528 327.07539177 C-120.70143321 325.35904544 -120.70765536 323.64268041 -120.72148132 321.92638969 C-120.86752412 302.70498185 -116.2838314 285.88721452 -102.73461914 271.53759766 C-91.32006441 260.14375558 -75.6073362 253.56218325 -61.5007782 246.10310364 C-55.96887227 243.17512218 -50.47047788 240.18834175 -44.98120117 237.18139648 C-33.41677537 230.85477198 -21.82537486 224.57830398 -10.23120117 218.30639648 C-10.12091912 216.24120017 -10.04244254 214.17429015 -9.97729492 212.10717773 C-9.93016357 210.95644775 -9.88303223 209.80571777 -9.83447266 208.62011719 C-10.54533481 202.68255906 -14.87139136 199.95939925 -19.23120117 196.30639648 C-20.42767622 195.0210114 -21.59652504 193.70914923 -22.73120117 192.36889648 C-24.59918816 190.17075365 -26.48331814 188.04555574 -28.48901367 185.97045898 C-38.80644886 175.17631062 -42.61002261 163.40609639 -42.42651367 148.67749023 C-42.42368378 147.80238297 -42.42085388 146.9272757 -42.41793823 146.02565002 C-42.40685511 143.26491894 -42.38177374 140.50452743 -42.35620117 137.74389648 C-42.34615599 135.8578335 -42.33703285 133.97176537 -42.32885742 132.08569336 C-42.30695485 127.49246606 -42.27250881 122.89948859 -42.23120117 118.30639648 C-43.45129883 118.16391479 -43.45129883 118.16391479 -44.69604492 118.01855469 C-105.75187342 110.7857741 -105.75187342 110.7857741 -119.23120117 98.30639648 C-121.08733525 94.59412833 -120.67288486 90.35836426 -120.23120117 86.30639648 C-117.32879134 80.7434443 -111.61474489 78.37116718 -105.8215332 76.5480957 C-103.23835338 75.87275786 -100.64976678 75.26208039 -98.04370117 74.68139648 C-97.12041016 74.46974854 -96.19711914 74.25810059 -95.24584961 74.04003906 C-68.92768427 68.118682 -68.92768427 68.118682 -62.16870117 72.11889648 C-60.23120117 74.30639648 -60.23120117 74.30639648 -60.23120117 77.30639648 C-58.64178711 77.08983398 -58.64178711 77.08983398 -57.02026367 76.86889648 C-55.63225218 76.68132736 -54.24423083 76.49383115 -52.85620117 76.30639648 C-52.1575293 76.21100586 -51.45885742 76.11561523 -50.73901367 76.01733398 C-45.45776367 75.30639648 -45.45776367 75.30639648 -43.23120117 75.30639648 C-43.117099 74.64040436 -43.00299683 73.97441223 -42.88543701 73.28823853 C-41.14074244 63.37066782 -38.73694033 53.65237259 -36.28295898 43.89038086 C-35.74802913 41.74935832 -35.22069091 39.60642485 -34.70092773 37.46166992 C-33.94167473 34.32987096 -33.15931671 31.2046368 -32.37182617 28.07983398 C-32.14658264 27.13272552 -31.92133911 26.18561707 -31.68927002 25.20980835 C-29.30092537 15.94886539 -25.06528635 9.10141468 -17.25854492 3.49780273 C-11.48614662 0.10554555 -6.55939089 0.00450937 0 0 Z " fill="#020101" transform="translate(149.231201171875,-0.306396484375)"/>
<path d="M0 0 C0.18949219 1.78857422 0.18949219 1.78857422 0.3828125 3.61328125 C0.69131741 6.50452601 1.05783015 9.36360572 1.51464844 12.23583984 C4.8286445 33.68093006 4.8286445 33.68093006 0.38476562 40.46630859 C-4.30221651 44.92110152 -9.97308432 47.64413837 -15.76953125 50.39599609 C-20.38900705 52.68967475 -24.70140866 55.41843582 -29.07861328 58.13916016 C-45.57582868 68.39035533 -56.74616599 70.83987598 -76.046875 71.91015625 C-76.78874809 71.9519356 -77.53062119 71.99371494 -78.29497528 72.03676033 C-99.50091199 73.22985792 -120.71609329 74.24766293 -141.93050003 75.27643204 C-146.42525163 75.49452527 -150.91996351 75.71343151 -155.41467762 75.9322958 C-164.40147661 76.36986068 -173.38831978 76.80650263 -182.37522411 77.24189854 C-191.95986474 77.70625348 -201.54438636 78.1728723 -211.12867928 78.64435101 C-217.10893489 78.93850708 -223.089282 79.23072867 -229.06973076 79.5209322 C-232.35397629 79.68035171 -235.63815266 79.8410059 -238.92224121 80.00363159 C-274.272634 81.75162897 -274.272634 81.75162897 -280.31640625 77.875 C-286.87855769 70.5668035 -286.53740004 63.00431666 -286.390625 53.65625 C-286.38315155 52.27763698 -286.37746384 50.89901324 -286.37347412 49.52038574 C-286.35830419 45.91656435 -286.31909968 42.31340228 -286.2746582 38.70983887 C-286.23351682 35.0227974 -286.21520293 31.33564475 -286.1953125 27.6484375 C-286.15472349 20.43171206 -286.07641307 13.21678993 -286 6 C-267.85 6 -249.7 6 -231 6 C-230.625 19.75 -230.625 19.75 -230.52197266 24.06933594 C-230.4863623 25.19629883 -230.45075195 26.32326172 -230.4140625 27.484375 C-230.3826416 28.63647461 -230.3512207 29.78857422 -230.31884766 30.97558594 C-230.01021527 33.90310359 -229.63533131 35.58171688 -228 38 C-224.31765173 40.45489884 -222.71023043 40.2372174 -218.3125 40.1875 C-217.57016113 40.18032959 -216.82782227 40.17315918 -216.06298828 40.16577148 C-207.51296048 40.05182738 -198.96642877 39.72041453 -190.42114258 39.42651367 C-181.03453889 39.11349303 -171.64826002 38.9065032 -162.2578125 38.74609375 C-161.04813812 38.72535294 -159.83846375 38.70461212 -158.59213257 38.6832428 C-152.50860304 38.58052172 -146.42502514 38.48375292 -140.34130859 38.39282227 C-134.85268333 38.30803008 -129.36511095 38.19933466 -123.87744141 38.06640625 C-122.04523526 38.02412218 -120.21286138 37.98826261 -118.38037109 37.9609375 C-116.13754405 37.92466781 -113.89797861 37.85852356 -111.65625 37.78125 C-110.46837891 37.75095703 -109.28050781 37.72066406 -108.05664062 37.68945312 C-103.39969664 36.63903701 -101.23837889 33.84317895 -98.64477539 29.98291016 C-98.29922607 29.34144043 -97.95367676 28.6999707 -97.59765625 28.0390625 C-91.47833243 17.29850658 -86.80215754 12.39267468 -75 8 C-73.68462695 7.43143845 -72.37343076 6.85312429 -71.06640625 6.265625 C-61.53395433 2 -61.53395433 2 -59 2 C-58.98582031 3.02480469 -58.97164062 4.04960937 -58.95703125 5.10546875 C-58.91010984 6.46618971 -58.86186256 7.82686541 -58.8125 9.1875 C-58.80669922 9.86103516 -58.80089844 10.53457031 -58.79492188 11.22851562 C-58.63104403 14.96128866 -58.02549579 16.9631937 -55.88671875 20.05078125 C-52.75192964 22.16750624 -51.67389318 22.228219 -48.05851746 21.57978821 C-43.87332212 20.40101418 -40.10909166 18.3130069 -36.26953125 16.30859375 C-35.35668869 15.84389175 -34.44384613 15.37918976 -33.50334167 14.90040588 C-30.60139561 13.42231019 -27.70640281 11.9312748 -24.8125 10.4375 C-21.90752955 8.94091268 -19.00116204 7.44745835 -16.08952332 5.96388245 C-14.28142182 5.04242754 -12.47714309 4.11342416 -10.67720032 3.1761322 C-9.8592247 2.7589241 -9.04124908 2.341716 -8.19848633 1.91186523 C-7.48235672 1.5418187 -6.76622711 1.17177216 -6.02839661 0.79051208 C-4 0 -4 0 0 0 Z " fill="#FDCBBC" transform="translate(331,415)"/>
<path d="M0 0 C0.86100311 -0.0007251 1.72200623 -0.0014502 2.60910034 -0.00219727 C31.5597322 0.00042885 60.50783343 1.18530686 89.4375 2.1875 C88.07273419 5.67690348 86.57504403 8.8516191 84.671875 12.08203125 C84.11886719 13.02498047 83.56585938 13.96792969 82.99609375 14.93945312 C82.10083984 16.45442383 82.10083984 16.45442383 81.1875 18 C79.91136769 20.17312386 78.63532859 22.34630245 77.359375 24.51953125 C76.70646484 25.62893066 76.05355469 26.73833008 75.38085938 27.88134766 C72.38642719 32.97564422 69.41236968 38.08176404 66.4375 43.1875 C65.27094483 45.18756504 64.10427781 47.18756484 62.9375 49.1875 C62.36 50.1775 61.7825 51.1675 61.1875 52.1875 C54.77083333 63.1875 48.35416667 74.1875 41.9375 85.1875 C41.35983887 86.17782227 40.78217773 87.16814453 40.18701172 88.18847656 C39.02213462 90.18531585 37.85709596 92.18206089 36.69189453 94.17871094 C33.74650499 99.2263033 30.80407819 104.2755823 27.8671875 109.328125 C24.40171563 115.28776912 20.92296584 121.23953107 17.4375 127.1875 C16.58067627 128.65364746 16.58067627 128.65364746 15.70654297 130.14941406 C14.06174346 132.95820385 12.40746286 135.76116867 10.75 138.5625 C10.01015869 139.8294873 10.01015869 139.8294873 9.25537109 141.12207031 C8.79598145 141.89389648 8.3365918 142.66572266 7.86328125 143.4609375 C7.46536377 144.13560059 7.06744629 144.81026367 6.6574707 145.50537109 C5.4375 147.1875 5.4375 147.1875 2.4375 149.1875 C0.40039063 149.45874023 0.40039063 149.45874023 -1.90625 149.49609375 C-2.74027344 149.52123047 -3.57429688 149.54636719 -4.43359375 149.57226562 C-6.18612394 149.60742039 -7.9387368 149.63867086 -9.69140625 149.66601562 C-10.94244141 149.7056543 -10.94244141 149.7056543 -12.21875 149.74609375 C-13.36053711 149.76627563 -13.36053711 149.76627563 -14.52539062 149.78686523 C-17.12836595 150.29878787 -17.93612427 151.11786061 -19.5625 153.1875 C-20.2225 154.5075 -20.8825 155.8275 -21.5625 157.1875 C-26.1825 156.8575 -30.8025 156.5275 -35.5625 156.1875 C-34.03255208 154.20182292 -32.50260417 152.21614583 -30.97265625 150.23046875 C-25.43947358 142.21425119 -28.65227101 128.03219116 -29.14233398 118.62255859 C-29.21444311 117.15911934 -29.27718572 115.69519013 -29.33081055 114.23095703 C-29.63211387 102.27044822 -29.63211387 102.27044822 -35.5625 92.1875 C-39.67830015 89.05165227 -43.99986438 88.39398909 -49.078125 88.4921875 C-57.09015754 90.09100117 -64.36604164 94.44211197 -71.5625 98.1875 C-72.89459349 98.85664062 -74.22755971 99.52405697 -75.5625 100.1875 C-74.15075289 96.42026956 -72.42708812 93.01355334 -70.4296875 89.5234375 C-69.79667725 88.41532715 -69.16366699 87.3072168 -68.51147461 86.16552734 C-67.82035491 84.96440015 -67.1290243 83.7633943 -66.4375 82.5625 C-65.7181352 81.30813135 -64.9988163 80.05373638 -64.27954102 78.79931641 C-58.77819629 69.22312968 -53.16559219 59.71536179 -47.51318359 50.22753906 C-42.79237708 42.29491263 -38.15914158 34.31745339 -33.5625 26.3125 C-18.41949717 -0.01558644 -18.41949717 -0.01558644 0 0 Z " fill="#BCC1D0" transform="translate(376.5625,310.8125)"/>
<path d="M0 0 C0.23074219 0.52319824 0.46148437 1.04639648 0.69921875 1.58544922 C7.21575925 16.3173431 7.21575925 16.3173431 17 29 C17.66257813 29.70125 18.32515625 30.4025 19.0078125 31.125 C28.05869385 39.94209474 41.02560536 46.40545206 53.75 46.375 C54.45229736 46.37338867 55.15459473 46.37177734 55.87817383 46.37011719 C64.20603078 46.17500029 70.81994448 43.66995569 77 38 C82.87381402 29.07745284 85.21052903 20.6014673 86 10 C88.47057658 10.36508257 89.67299295 10.59739993 91.27685547 12.57202148 C91.63666504 13.24821533 91.99647461 13.92440918 92.3671875 14.62109375 C92.77509521 15.38268799 93.18300293 16.14428223 93.60327148 16.92895508 C94.02294189 17.7567749 94.4426123 18.58459473 94.875 19.4375 C95.31336182 20.28916748 95.75172363 21.14083496 96.20336914 22.01831055 C111.46389554 52.51403701 113 87.52311238 113 121 C74.72 121 36.44 121 -3 121 C-3.66 107.14 -4.32 93.28 -5 79 C-8.40945564 55.13381054 -14.18734551 34.42871525 -25 13 C-24.48091064 12.71278076 -23.96182129 12.42556152 -23.42700195 12.12963867 C-21.05499613 10.8165026 -18.68374289 9.50201321 -16.3125 8.1875 C-15.49587891 7.73568359 -14.67925781 7.28386719 -13.83789062 6.81835938 C-10.53614411 4.98702629 -7.25694278 3.15851027 -4.04296875 1.17578125 C-2 0 -2 0 0 0 Z " fill="#A9CAF8" transform="translate(144,235)"/>
<path d="M0 0 C-0.04825928 0.60545654 -0.09651855 1.21091309 -0.14624023 1.8347168 C-1.3814998 21.72703959 4.81720976 34.95097567 14.75244141 51.50756836 C15.36998291 52.74132202 15.36998291 52.74132202 16 54 C14.34846575 57.3030685 10.80362799 57.63955764 7.4453125 58.8046875 C4.55952592 60.21531161 3.63591122 61.24944507 2 64 C1.49746855 66.9935686 1.49746855 66.9935686 1.48828125 70.296875 C1.43510742 72.10478516 1.43510742 72.10478516 1.38085938 73.94921875 C1.35830078 75.20347656 1.33574219 76.45773438 1.3125 77.75 C1.27833984 79.01972656 1.24417969 80.28945312 1.20898438 81.59765625 C1.12650999 84.73168274 1.05735516 87.86542955 1 91 C-4.55276862 91.09971302 -9.81618946 90.74570197 -15.3125 90 C-25.15659889 88.54796281 -25.15659889 88.54796281 -35 89 C-36.68294198 90.23837993 -36.68294198 90.23837993 -38 92 C-38.28370677 95.04660888 -38.39308515 97.89884698 -38.37109375 100.9453125 C-38.38848994 102.76302258 -38.40607415 104.58073088 -38.42382812 106.3984375 C-38.43385973 109.25524408 -38.43750786 112.11192662 -38.43579102 114.96875 C-38.43938918 117.73214114 -38.46684942 120.4945907 -38.49609375 123.2578125 C-38.48791122 124.09877472 -38.4797287 124.93973694 -38.47129822 125.80618286 C-38.54661083 131.88855451 -39.93196569 136.72124584 -43 142 C-47.24721916 146.11851555 -52.05025975 146.51836596 -57.75 146.48046875 C-67.26029736 145.07449931 -76.82526603 138.99792095 -82.94140625 131.67578125 C-86.81752868 126.02504855 -90.34020062 120.33068688 -93 114 C-93.26256592 113.44296387 -93.52513184 112.88592773 -93.7956543 112.31201172 C-97.07373418 104.32478247 -96.40970611 95.72177718 -96.3125 87.25 C-96.30106624 85.5060224 -96.28967386 83.76204453 -96.27832031 82.01806641 C-96.16446922 69.13282705 -95.8406935 56.24852781 -95.36019897 43.37194824 C-95.28705151 41.38264507 -95.2194766 39.39312875 -95.15762329 37.40344238 C-95.06721379 34.60894556 -94.95142119 31.81665308 -94.828125 29.0234375 C-94.80499741 28.19699738 -94.78186981 27.37055725 -94.75804138 26.51907349 C-94.48850758 21.2741857 -93.43566152 18.18044975 -90 14 C-86.72419867 11.23376777 -84.7678533 10.09598166 -80.5 9.5625 C-75.61826168 10.17271729 -72.37993672 11.43663611 -69.08984375 15.1640625 C-66.71508588 18.38663112 -64.71475954 21.70550948 -62.75 25.1875 C-62.38648438 25.81591797 -62.02296875 26.44433594 -61.6484375 27.09179688 C-59 31.74647556 -59 31.74647556 -59 34 C-52.84789518 35.28622206 -52.84789518 35.28622206 -47 34 C-46.30569849 32.00942474 -45.64448891 30.00725646 -45 28 C-44.08543927 25.82501931 -43.14365288 23.66135217 -42.1796875 21.5078125 C-41.64472656 20.30898437 -41.10976562 19.11015625 -40.55859375 17.875 C-39.99745717 16.62497246 -39.43625849 15.3749728 -38.875 14.125 C-38.30573112 12.85167802 -37.73671824 11.57824156 -37.16796875 10.3046875 C-35.78115731 7.20199072 -34.39175486 4.10048172 -33 1 C-21.98080785 0.23629361 -11.04528196 -0.13379211 0 0 Z " fill="#FBD0C1" transform="translate(253,120)"/>
<path d="M0 0 C1.0715332 1.5402832 1.0715332 1.5402832 2.05078125 3.55078125 C2.59955933 4.67601196 2.59955933 4.67601196 3.15942383 5.82397461 C17.07856736 35.86374383 19.83332614 66.26951342 19 99 C17.68644531 99.01417969 16.37289062 99.02835937 15.01953125 99.04296875 C13.28381949 99.08987988 11.54814348 99.13812721 9.8125 99.1875 C8.94818359 99.19330078 8.08386719 99.19910156 7.19335938 99.20507812 C5.93168945 99.24858398 5.93168945 99.24858398 4.64453125 99.29296875 C3.87471924 99.3086792 3.10490723 99.32438965 2.31176758 99.34057617 C-1.35290303 100.38591098 -2.75293202 101.93510832 -5 105 C-5.72979488 108.29832995 -5.72190931 111.52622907 -5.70703125 114.89453125 C-5.72165405 115.73479858 -5.73627686 116.57506592 -5.75134277 117.4407959 C-5.79853149 120.56440736 -5.80300192 123.68854656 -5.8125 126.8125 C-5.874375 133.804375 -5.93625 140.79625 -6 148 C-24.15 148 -42.3 148 -61 148 C-61.16043524 124.52297694 -61.16043524 124.52297694 -61.1953125 114.4609375 C-61.21915812 107.61413055 -61.24726745 100.76753903 -61.30175781 93.92089844 C-61.34544556 88.3965749 -61.36918542 82.87248262 -61.37950897 77.34799957 C-61.38685933 75.24781915 -61.40121217 73.14765037 -61.42292023 71.04756927 C-61.59794998 53.40168454 -59.50325372 39.0758598 -47.1875 25.5 C-41.36946819 19.98156784 -34.53361128 16.25073172 -27.55224609 12.40917969 C-24.72671693 10.84911136 -21.92048129 9.25685824 -19.11328125 7.6640625 C-17.11804177 6.54535002 -15.12195725 5.42814327 -13.125 4.3125 C-12.16762939 3.77069092 -11.21025879 3.22888184 -10.22387695 2.6706543 C-9.32757568 2.17734619 -8.43127441 1.68403809 -7.5078125 1.17578125 C-6.31115967 0.50929565 -6.31115967 0.50929565 -5.09033203 -0.1706543 C-3 -1 -3 -1 0 0 Z " fill="#A9CBF8" transform="translate(106,257)"/>
<path d="M0 0 C2.97 0 5.94 0 9 0 C9.03867188 1.12148438 9.03867188 1.12148438 9.078125 2.265625 C9.36608954 8.2824279 9.36608954 8.2824279 11.625 13.75 C15.12921872 15.59432564 17.25991287 15.08802535 21 14 C24.9220678 9.48921424 24.9220678 9.48921424 25 0 C63.28 0 101.56 0 141 0 C141.33 3.96 141.66 7.92 142 12 C145.64186798 15.37092245 145.64186798 15.37092245 149.5625 14.9375 C152.92238171 14.26567142 152.92238171 14.26567142 154.875 12.5 C156.54654411 8.78545754 156.74998348 5.03474934 157 1 C159.64 1 162.28 1 165 1 C165 10.57 165 20.14 165 30 C164.01 29.67 163.02 29.34 162 29 C155.5627172 28.32200398 150.66826464 29.45118754 144.859375 32.140625 C144.12930237 32.46407898 143.39922974 32.78753296 142.64703369 33.12078857 C141.11760794 33.80232129 139.59171281 34.49182881 138.06933594 35.18896484 C135.74949699 36.25023012 133.41923064 37.28510834 131.0859375 38.31640625 C129.59307155 38.9854674 128.10085994 39.65599091 126.609375 40.328125 C125.91970642 40.63558655 125.23003784 40.9430481 124.51947021 41.25982666 C118.96398795 43.81893934 114.54647884 46.55182494 111.359375 51.85546875 C110.92882812 52.55994141 110.49828125 53.26441406 110.0546875 53.99023438 C109.62414062 54.71533203 109.19359375 55.44042969 108.75 56.1875 C107.87069848 57.63987231 106.99053575 59.09172369 106.109375 60.54296875 C105.53654785 61.5023938 105.53654785 61.5023938 104.95214844 62.48120117 C104 64 104 64 103 65 C101.64565643 65.15172434 100.28389816 65.23804661 98.92236328 65.29711914 C97.60508743 65.35705299 97.60508743 65.35705299 96.26119995 65.41819763 C95.29070709 65.45679398 94.32021423 65.49539032 93.3203125 65.53515625 C92.30462189 65.57822403 91.28893127 65.62129181 90.24246216 65.66566467 C86.87021307 65.80487576 83.49769714 65.93462719 80.125 66.0625 C78.97849976 66.10735535 77.83199951 66.15221069 76.65075684 66.19842529 C51.08623218 67.18078843 25.58466123 67.14373405 0 67 C0 44.89 0 22.78 0 0 Z " fill="#C59431" transform="translate(116,372)"/>
<path d="M0 0 C0.94650421 -0.0049649 1.89300842 -0.00992981 2.86819458 -0.01504517 C6.0101188 -0.02969039 9.15199251 -0.03647334 12.29394531 -0.04199219 C14.47389732 -0.04774247 16.6538493 -0.05350022 18.83380127 -0.05926514 C23.4103621 -0.06978237 27.98690534 -0.07562005 32.56347656 -0.07910156 C38.42577505 -0.08458243 44.28784082 -0.10859885 50.15006638 -0.13707352 C54.65566688 -0.15570619 59.16121145 -0.16090588 63.66684723 -0.16243744 C65.82778442 -0.16546395 67.98872063 -0.17349242 70.14962006 -0.18662262 C73.17544685 -0.20369311 76.20070697 -0.20180006 79.2265625 -0.1953125 C80.11822113 -0.20452728 81.00987976 -0.21374207 81.92855835 -0.22323608 C86.97097086 -0.18940014 90.54941654 0.2696019 94.87207031 3.16113281 C99.18681066 8.39129045 100.36523861 16.12744661 101.88769531 22.55566406 C102.27873444 24.15942146 102.27873444 24.15942146 102.67767334 25.795578 C103.22324224 28.04092615 103.76420597 30.28739777 104.30078125 32.53491211 C105.12419778 35.98254047 105.96174341 39.42649921 106.80175781 42.87011719 C107.33122545 45.05676732 107.85989947 47.2436098 108.38769531 49.43066406 C108.63763245 50.46189896 108.88756958 51.49313385 109.14508057 52.55561829 C109.48608795 53.98807137 109.48608795 53.98807137 109.83398438 55.44946289 C110.03509827 56.28915115 110.23621216 57.12883942 110.44342041 57.99397278 C110.87207031 60.16113281 110.87207031 60.16113281 110.87207031 63.16113281 C88.0514425 65.91973894 65.12036622 65.42914596 42.17663574 65.35675049 C37.84581615 65.34590673 33.51502826 65.3462831 29.18419743 65.34688854 C24.95870603 65.3466145 20.73323433 65.34109721 16.50774956 65.3338871 C14.51501043 65.33074811 12.52226912 65.32874446 10.52952766 65.32799339 C1.11985152 65.32055173 -8.26876103 65.24788024 -17.6652832 64.71313477 C-18.35136878 64.67454692 -19.03745436 64.63595907 -19.74433041 64.5962019 C-23.28039914 64.36866436 -26.67306839 63.95197157 -30.12792969 63.16113281 C-29.48834571 56.18461806 -27.76825107 49.70743624 -25.87792969 42.97363281 C-24.03824482 36.35424106 -22.21191494 29.7540908 -20.76464844 23.03613281 C-20.55936523 22.09406982 -20.35408203 21.15200684 -20.14257812 20.18139648 C-19.76984608 18.43267772 -19.41379431 16.68028199 -19.078125 14.92407227 C-17.81862784 9.07360083 -15.56457663 5.22152163 -11.12792969 1.16113281 C-7.70212879 -0.55176764 -3.770318 0.00468425 0 0 Z " fill="#B3811D" transform="translate(152.1279296875,15.8388671875)"/>
<path d="M0 0 C1.02829926 -0.00832352 2.05659851 -0.01664703 3.11605835 -0.02522278 C6.51466668 -0.04931168 9.91308293 -0.05809455 13.31176758 -0.06469727 C15.67963213 -0.07366588 18.0474961 -0.08278777 20.4153595 -0.09205627 C25.38092424 -0.10854684 30.34642155 -0.11624627 35.31201172 -0.11914062 C41.65939491 -0.12451804 48.0061398 -0.1621723 54.35334301 -0.20788479 C59.24599999 -0.23770432 64.13850435 -0.24486529 69.03124428 -0.24586678 C71.3703128 -0.2500609 73.70938211 -0.26246251 76.04836082 -0.28338432 C79.32958518 -0.31039296 82.60934436 -0.30544359 85.890625 -0.29296875 C86.84734604 -0.30780304 87.80406708 -0.32263733 88.78977966 -0.33792114 C96.55551111 -0.25430969 103.01789572 1.97518976 108.88650608 7.18714905 C116.09631193 14.59985717 118.34042819 24.69138442 120.71411133 34.46655273 C120.97006073 35.49646835 121.22601013 36.52638397 121.48971558 37.58750916 C122.29775558 40.846363 123.09580684 44.10756947 123.89379883 47.36889648 C124.43613731 49.55980781 124.97910084 51.7505645 125.52270508 53.94116211 C133.292251 85.34542085 133.292251 85.34542085 130.83129883 91.74389648 C113.27025907 105.04771448 67.29942666 97.56404402 46.6182251 97.50201416 C42.05649653 97.49116087 37.49479799 97.49154703 32.93305874 97.49215221 C28.4845345 97.49187837 24.03602901 97.48636447 19.58751106 97.47915077 C17.48871056 97.47600972 15.38990799 97.47400763 13.29110527 97.47325706 C1.07571823 97.46408911 -11.04514646 97.18686499 -23.23120117 96.30639648 C-24.19947342 96.2405687 -25.16774567 96.17474091 -26.1653595 96.10691833 C-28.27564696 95.9582038 -30.37627025 95.76646943 -32.48120117 95.55639648 C-33.51954102 95.48291992 -33.51954102 95.48291992 -34.57885742 95.40795898 C-38.15381649 95.03884275 -40.25240027 94.29163481 -43.21557617 92.22827148 C-45.8193232 88.4538475 -45.69757577 85.70889112 -45.23120117 81.30639648 C-44.31636547 76.44052506 -43.14021532 71.64391397 -41.94213867 66.84155273 C-41.59748575 65.43972589 -41.25314108 64.03782322 -40.90908813 62.635849 C-40.18761041 59.70672279 -39.45858688 56.77959458 -38.72485352 53.85351562 C-37.7919645 50.12835477 -36.88398766 46.39761766 -35.98241234 42.66477299 C-35.27909712 39.76953734 -34.55946901 36.87853402 -33.83537674 33.98843193 C-33.49407491 32.61569905 -33.15837253 31.24155994 -32.82871628 29.86598396 C-30.13763746 18.68432062 -26.77613512 10.32944723 -17.25854492 3.49780273 C-11.48614662 0.10554555 -6.55939089 0.00450937 0 0 Z M-13.23120117 22.30639648 C-14.6630754 25.17549769 -14.6630754 25.17549769 -15.23120117 28.43139648 C-15.53123759 29.74016121 -15.83209589 31.04873765 -16.13354492 32.35717773 C-16.29838379 33.11337402 -16.46322266 33.86957031 -16.63305664 34.64868164 C-17.62952093 39.07623687 -18.7496488 43.47265957 -19.85424805 47.87426758 C-20.46910034 50.32504837 -21.0786864 52.77715786 -21.68237305 55.23071289 C-23.17951088 61.28938974 -24.75929361 67.27509656 -26.69580078 73.20947266 C-27.39612784 75.59164119 -27.39612784 75.59164119 -27.23120117 79.30639648 C-23.09467237 80.25327308 -18.99441259 80.62072144 -14.76855469 80.85839844 C-14.02983659 80.90043805 -13.29111849 80.94247766 -12.53001499 80.98579121 C-2.90263865 81.48471163 6.72865054 81.47073272 16.36645508 81.47436523 C18.4145866 81.47759148 20.46271791 81.48095649 22.510849 81.48445129 C26.78100111 81.49039503 31.05113312 81.49229618 35.32128906 81.49169922 C39.64880562 81.49161805 43.97621611 81.49855227 48.30371094 81.51220703 C81.09571952 81.75852018 81.09571952 81.75852018 113.76879883 79.30639648 C112.52331344 72.07611611 111.05711046 64.94273957 109.30786133 57.81811523 C109.07602142 56.87128372 108.84418152 55.92445221 108.60531616 54.94892883 C108.11816958 52.96790627 107.62902424 50.9873742 107.13793945 49.00732422 C106.39197963 45.98652958 105.66243387 42.96204402 104.93286133 39.93725586 C104.45470336 38.00145955 103.97557065 36.06590369 103.49536133 34.13061523 C103.28166901 33.23364426 103.06797668 32.33667328 102.84780884 31.41252136 C101.57668595 26.38119066 100.20734803 22.33710979 96.76879883 18.30639648 C92.15154637 15.73731357 87.45550654 15.99707896 82.31616211 15.98413086 C80.89815811 15.96923615 80.89815811 15.96923615 79.45150757 15.95404053 C76.330679 15.92487982 73.21005363 15.9112086 70.08911133 15.90014648 C67.91584265 15.88863823 65.74257402 15.87712283 63.56930542 15.86560059 C59.01486263 15.84460515 54.46049021 15.83290331 49.90600586 15.82592773 C44.07609456 15.81495283 38.24711621 15.76687798 32.41749763 15.70998383 C27.92899877 15.67270124 23.44072421 15.66231843 18.95208359 15.65925598 C16.8030982 15.65321017 14.65411642 15.63717716 12.50528336 15.61088562 C9.49621123 15.57669166 6.48941331 15.58053866 3.48022461 15.59350586 C2.15519928 15.56586151 2.15519928 15.56586151 0.80340576 15.53765869 C-5.50414698 15.62261252 -9.14679871 17.44430167 -13.23120117 22.30639648 Z " fill="#010100" transform="translate(149.231201171875,-0.306396484375)"/>
<path d="M0 0 C13.50259223 3.7002296 26.24789028 7.72031295 37 17 C37.78890625 17.67804688 38.5778125 18.35609375 39.390625 19.0546875 C51.68275949 30.46881239 59.41158292 46.85737495 60.36987305 63.63916016 C60.5299159 68.0241504 60.598393 72.41176386 60.64526367 76.79931641 C60.67326666 78.67276515 60.72090566 80.5460302 60.78881836 82.41845703 C61.29118972 96.36939568 59.26076112 104.76431087 51 116 C50.03981071 117.56836401 49.09766212 119.14817822 48.1875 120.74609375 C47.81496094 121.37451172 47.44242187 122.00292969 47.05859375 122.65039062 C46.31905322 123.89887695 45.58229533 125.14901389 44.84765625 126.40039062 C43.92592608 127.95027499 42.96714532 129.4780414 42 131 C41.67 131 41.34 131 41 131 C40.98541748 130.31897217 40.97083496 129.63794434 40.95581055 128.9362793 C40.88137304 125.85277785 40.78469917 122.77036433 40.6875 119.6875 C40.65366211 118.0797168 40.65366211 118.0797168 40.61914062 116.43945312 C40.58369141 115.41142578 40.54824219 114.38339844 40.51171875 113.32421875 C40.47244263 111.9024231 40.47244263 111.9024231 40.43237305 110.4519043 C39.93118701 107.6097748 39.25293973 106.73916589 37 105 C34.76352369 103.88176185 33.35108471 103.80603939 30.8671875 103.68359375 C30.06152344 103.64169922 29.25585938 103.59980469 28.42578125 103.55664062 C27.58402344 103.51732422 26.74226563 103.47800781 25.875 103.4375 C24.60076172 103.37272461 24.60076172 103.37272461 23.30078125 103.30664062 C21.20071777 103.20045764 19.10038052 103.09971503 17 103 C16.95512451 102.01008057 16.91024902 101.02016113 16.86401367 100.00024414 C14.94754641 52.18611804 14.94754641 52.18611804 1.98046875 6.390625 C1.10786924 4.26301186 0.48730276 2.24264067 0 0 Z " fill="#A8C9F7" transform="translate(256,253)"/>
<path d="M0 0 C-0.165 0.825 -0.33 1.65 -0.5 2.5 C-1.76670693 9.64032098 -1.76670693 9.64032098 0.5390625 16.16796875 C3.7816696 18.58190959 6.77615841 18.86725216 10.6875 19.1875 C11.33783203 19.25646484 11.98816406 19.32542969 12.65820312 19.39648438 C28.29364562 20.94986631 43.92505644 21.16235563 59.62109375 21.16796875 C61.77653524 21.17119457 63.93197653 21.17455955 66.0874176 21.17805481 C70.58456936 21.18400232 75.08170202 21.18589935 79.57885742 21.18530273 C84.13521305 21.18522164 88.69146779 21.19214457 93.24780273 21.20581055 C133.16796985 23.52171548 133.16796985 23.52171548 172 17 C174.08182246 13.8772663 174.25407348 13.17155089 174.1875 9.625 C174.18105469 8.87476562 174.17460937 8.12453125 174.16796875 7.3515625 C173.98824759 4.8354662 173.54352056 2.46106111 173 0 C178.4434293 -0.1012731 183.64509374 -0.05441969 189 1 C190.79098709 2.98755884 191.24846615 4.48999715 191.96826172 7.03564453 C192.81287509 9.1634167 192.81287509 9.1634167 194.88476562 9.74194336 C195.67560547 9.85675049 196.46644531 9.97155762 197.28125 10.08984375 C198.18020996 10.23591064 199.07916992 10.38197754 200.00537109 10.5324707 C200.99359863 10.68675537 201.98182617 10.84104004 203 11 C205.15032526 11.42013843 207.29873052 11.85019935 209.4453125 12.2890625 C211.08886719 12.61777344 211.08886719 12.61777344 212.765625 12.953125 C215.04427083 13.40885417 217.32291667 13.86458333 219.6015625 14.3203125 C221.22578125 14.64515625 221.22578125 14.64515625 222.8828125 14.9765625 C224.58854167 15.31770833 226.29427083 15.65885417 228 16 C224.88968788 19.11031212 221.08833295 19.41973379 216.875 20.375 C215.91867676 20.59196533 214.96235352 20.80893066 213.97705078 21.0324707 C200.13839874 24.00692047 186.05351673 25.44520706 172 27 C170.50146484 27.17208984 170.50146484 27.17208984 168.97265625 27.34765625 C168.08449219 27.44949219 167.19632813 27.55132812 166.28125 27.65625 C165.54712891 27.74068359 164.81300781 27.82511719 164.05664062 27.91210938 C140.23791009 30.35816983 116.31893087 30.21754863 92.40283203 30.24023438 C88.49616007 30.24459099 84.58971243 30.25839906 80.68310547 30.28125 C36.51802959 30.53404988 -10.33756163 29.7444996 -53 17 C-50.30903233 14.30903233 -48.3498146 14.40327324 -44.6015625 13.8515625 C-43.31765625 13.65046875 -42.03375 13.449375 -40.7109375 13.2421875 C-38.66882825 12.93111175 -36.62622913 12.62517861 -34.58203125 12.328125 C-32.60720687 12.037822 -30.63555637 11.72618277 -28.6640625 11.4140625 C-27.48279785 11.2382666 -26.3015332 11.0624707 -25.08447266 10.88134766 C-21.61442178 9.88982607 -20.22349635 8.79884851 -18 6 C-17.2127322 3.8618034 -17.2127322 3.8618034 -17 2 C-14.54187409 1.66507287 -12.08352273 1.3319903 -9.625 1 C-8.57699219 0.85691406 -8.57699219 0.85691406 -7.5078125 0.7109375 C-2.2265625 0 -2.2265625 0 0 0 Z " fill="#C29130" transform="translate(106,75)"/>
<path d="M0 0 C1.3899408 2.7798816 1.18488204 4.9186326 1 8 C0.14874336 10.55376992 -0.568212 11.66416489 -2.6875 13.3125 C-7.18782736 14.65043516 -11.09568823 13.48020526 -15.1484375 11.328125 C-16.21320313 10.64234375 -17.27796875 9.9565625 -18.375 9.25 C-34.73758386 -0.66948263 -53.35937594 -2.84342764 -72 1 C-81.67535303 3.47369851 -89.49290429 7.09654448 -97.78125 12.5234375 C-101.73441526 14.33690409 -103.83918149 14.09521545 -108 13 C-111.44856798 10.15493142 -111.94350392 8.58379283 -112.375 4.125 C-111.63105816 0.24483273 -109.88311615 -1.31853665 -106.75 -3.625 C-75.052044 -23.391197 -29.43022212 -25.75144435 0 0 Z " fill="#000000" transform="translate(481,215)"/>
<path d="M0 0 C3.84547338 3.9453558 3.84547338 3.9453558 4.3125 7.1328125 C3.81482195 10.30551009 3.44319622 12.43270883 1.4375 15 C-2.19169937 16.48890231 -5.20460504 16.80469977 -9 16 C-11.81899765 14.65820636 -14.44499811 13.15929335 -17.09375 11.5078125 C-23.19363821 8.34308555 -29.44948297 7.60926899 -36.25 7.625 C-36.98653809 7.62661133 -37.72307617 7.62822266 -38.48193359 7.62988281 C-46.62280731 7.81051564 -53.83349833 9.90780164 -60.75 14.25 C-65.03236203 16.55588724 -67.19109276 16.63067636 -72 16 C-75.06458538 13.95694308 -75.82153128 12.55920198 -76.9375 9.0625 C-77.01391412 5.31820828 -76.15178231 4.02004535 -74 1 C-53.50735506 -15.52632657 -21.26564254 -13.42804748 0 0 Z " fill="#000000" transform="translate(462,233)"/>
<path d="M0 0 C9.9 0.33 19.8 0.66 30 1 C30 1.66 30 2.32 30 3 C29.2575 3.70125 28.515 4.4025 27.75 5.125 C21.21113309 11.96108813 19.90925846 19.35059487 19.5 28.52734375 C19.45939453 29.3532753 19.41878906 30.17920685 19.37695312 31.03016663 C19.24751781 33.66577776 19.12317116 36.30158915 19 38.9375 C18.8376362 42.4051721 18.67026607 45.87255174 18.5 49.33984375 C18.46455078 50.13269272 18.42910156 50.92554169 18.39257812 51.74241638 C18.20350767 55.58936269 17.9002748 59.23807046 17 63 C8.81316015 56.48394379 1.00326593 48.64631756 -0.26199341 37.74209595 C-0.34422695 35.31203881 -0.33812048 32.89974873 -0.29296875 30.46875 C-0.28872391 29.59222778 -0.28447906 28.71570557 -0.28010559 27.81262207 C-0.2634513 25.04142177 -0.22582509 22.27097664 -0.1875 19.5 C-0.17243599 17.60938558 -0.1587506 15.71875964 -0.14648438 13.828125 C-0.11615613 9.21823232 -0.05741175 4.60995107 0 0 Z " fill="#313131" transform="translate(124,119)"/>
<path d="M0 0 C2.23605352 2.45965887 2.79412505 3.746627 2.875 7.0625 C2.09862448 10.02684289 1.25283439 11.67117152 -0.875 13.875 C-3.90691945 15.47517971 -5.72077719 15.4629968 -9.125 15.0625 C-10.176875 14.5675 -11.22875 14.0725 -12.3125 13.5625 C-17.47049286 11.16077383 -23.77596527 10.9525342 -29.17578125 12.7421875 C-30.82754165 13.51129988 -32.47638004 14.28667884 -34.125 15.0625 C-38.27425995 15.72638159 -39.55630838 15.47047442 -43 13 C-45.125 10.0625 -45.125 10.0625 -45.75 6.5625 C-44.92919064 1.96596761 -43.90905408 0.80779414 -40.125 -1.9375 C-27.17732227 -8.80403273 -12.27417792 -7.60999031 0 0 Z " fill="#000000" transform="translate(447.125,254.9375)"/>
<path d="M0 0 C2.64 0 5.28 0 8 0 C7.34 2.31 6.68 4.62 6 7 C5.34 7 4.68 7 4 7 C2.02 3.535 2.02 3.535 0 0 Z " fill="#2F2F2F" transform="translate(194,122)"/>
</svg>
